<?xml version="1.0" encoding="UTF-8"?><svg id="Layer_2" xmlns="http://www.w3.org/2000/svg" viewBox="0 0 489.06 489.06"><defs><style>.cls-1{fill:#fff;}.cls-2{fill:#2285b5;}.cls-3{fill:#006ca3;}</style></defs><g id="Layer_1-2"><g id="Layer_2-2"><g id="Layer_1-2"><g id="IEEE_Day"><path class="cls-2" d="m0,244.53C0,109.48,109.48,0,244.53,0s244.53,109.48,244.53,244.53-109.48,244.53-244.53,244.53S0,379.58,0,244.53"/><path class="cls-3" d="m358.35,83.9c-18.76-34.23-43.38-59.94-71.33-73.06,8.9,16.06,16.37,37.08,22.36,61.44,16.57,2.73,32.94,6.62,48.97,11.63"/><path class="cls-3" d="m327.53,244.53c0,18.73-.59,37.48-1.71,55.89,22.71-2.11,45.28-5.46,67.63-10.02,3.65-30.47,3.65-61.27,0-91.74-22.34-4.56-44.92-7.91-67.63-10.02,1.12,18.41,1.71,37.16,1.71,55.89"/><path class="cls-3" d="m389.55,173.35c-3.83-20.35-9.58-40.29-17.19-59.55-18.63-7.22-37.89-12.71-57.53-16.4,3.99,20.92,7.05,43.56,9.16,67.09,22.95,2.06,45.05,5.01,65.55,8.87"/><path class="cls-3" d="m99.52,315.72c3.83,20.35,9.58,40.29,17.19,59.55,18.63,7.22,37.89,12.71,57.53,16.4-3.99-20.92-7.05-43.56-9.16-67.09-22.94-2.06-45.06-5.01-65.55-8.87"/><path class="cls-3" d="m314.83,391.67c19.64-3.69,38.9-9.18,57.53-16.4,7.6-19.26,13.36-39.2,17.19-59.55-20.5,3.85-42.61,6.81-65.55,8.86-2.11,23.53-5.17,46.17-9.16,67.09"/><path class="cls-3" d="m244.53,328.08c-18.53,0-37.08-.57-55.31-1.69,2.15,23.22,5.59,46.31,10.3,69.16,29.9,3.57,60.12,3.57,90.02,0,4.71-22.84,8.15-45.93,10.3-69.16-18.23,1.11-36.78,1.69-55.31,1.69"/><path class="cls-3" d="m283.61,420.19c-12.76,1.25-25.8,1.92-39.08,1.92s-26.32-.67-39.08-1.92c11.84,43.42,26.86,67.84,39.08,67.84s27.24-24.42,39.08-67.84"/><path class="cls-3" d="m98.76,393.28c-30.59-13.27-56.86-30.56-77.07-50.76,24.96,56.44,70.31,101.37,126.97,125.81-19.74-19.69-36.75-45.23-49.9-75.05"/><path class="cls-3" d="m70.99,284.55c-1.29-13.06-1.95-26.4-1.97-40.02,0-13.6.66-26.94,1.97-40.02C26.26,216.55,1.04,232,1.04,244.53s25.22,27.98,69.95,40.02"/><path class="cls-3" d="m205.45,68.88c12.76-1.25,25.81-1.91,39.08-1.91s26.32.67,39.09,1.91C271.77,25.46,256.75,1.04,244.53,1.04s-27.24,24.42-39.08,67.84"/><path class="cls-3" d="m98.76,95.79c13.16-29.82,30.16-55.36,49.9-75.05-56.66,24.44-102.01,69.38-126.97,125.82,20.21-20.21,46.48-37.5,77.06-50.76"/><path class="cls-3" d="m174.23,97.39c-19.64,3.69-38.9,9.18-57.53,16.4-7.6,19.26-13.35,39.2-17.18,59.56,20.5-3.86,42.61-6.81,65.55-8.87,2.11-23.53,5.17-46.17,9.16-67.09"/><path class="cls-3" d="m10.66,287.21c13.42,29.26,40.27,54.95,76.06,74.23-5.33-16.71-9.45-33.79-12.31-51.1-25.34-6.14-47.2-13.86-63.75-23.12"/><path class="cls-3" d="m202.04,478.23c-8.9-16.06-16.37-37.08-22.36-61.43-16.57-2.73-32.94-6.62-48.97-11.63,18.76,34.23,43.38,59.93,71.33,73.06"/><path class="cls-3" d="m287.02,478.23c27.95-13.13,52.57-38.83,71.33-73.06-16.03,5.01-32.39,8.89-48.97,11.63-6,24.35-13.46,45.37-22.36,61.43"/><path class="cls-3" d="m478.4,287.21c-16.55,9.26-38.41,16.98-63.74,23.12-2.86,17.31-6.98,34.39-12.31,51.1,35.79-19.28,62.63-44.97,76.05-74.23"/><path class="cls-3" d="m390.3,393.28c-13.15,29.82-30.16,55.36-49.9,75.05,56.66-24.44,102.01-69.37,126.97-125.81-20.21,20.21-46.48,37.5-77.07,50.76"/><path class="cls-3" d="m478.4,201.85c-13.42-29.26-40.26-54.94-76.06-74.22,5.33,16.71,9.45,33.79,12.31,51.1,25.34,6.14,47.2,13.86,63.75,23.12"/><path class="cls-3" d="m187.28,302.36c18.04,1.18,37.13,1.85,57.25,1.85s39.21-.67,57.25-1.85c1.19-18.21,1.86-37.5,1.86-57.83s-.67-39.61-1.86-57.83c-18.05-1.18-37.14-1.85-57.25-1.85s-39.2.67-57.25,1.85c-1.19,18.22-1.87,37.5-1.87,57.83s.68,39.62,1.87,57.83"/><path class="cls-3" d="m244.53,160.98c18.54,0,37.09.58,55.31,1.69-2.15-23.22-5.59-46.31-10.3-69.16-29.9-3.57-60.12-3.57-90.02,0-4.71,22.84-8.15,45.93-10.3,69.16,18.23-1.11,36.78-1.69,55.31-1.69"/><path class="cls-3" d="m202.04,10.83c-27.95,13.13-52.57,38.84-71.33,73.06,16.03-5.01,32.39-8.89,48.97-11.63,6-24.35,13.47-45.37,22.36-61.44"/><path class="cls-3" d="m10.66,201.85c16.54-9.26,38.41-16.98,63.75-23.12,2.86-17.31,6.98-34.39,12.31-51.1-35.79,19.28-62.63,44.97-76.06,74.23"/><path class="cls-3" d="m161.54,244.53c0-18.73.59-37.48,1.71-55.89-22.71,2.11-45.28,5.46-67.62,10.02-3.65,30.47-3.65,61.27,0,91.75,22.34,4.56,44.92,7.91,67.62,10.02-1.12-18.41-1.71-37.16-1.71-55.89"/><path class="cls-3" d="m418.08,204.51c1.29,13.06,1.95,26.4,1.97,40.02,0,13.6-.66,26.94-1.97,40.02,44.73-12.04,69.95-27.49,69.95-40.02s-25.22-27.98-69.95-40.02"/><path class="cls-3" d="m390.31,95.79c30.59,13.27,56.86,30.56,77.07,50.76-24.96-56.44-70.31-101.37-126.97-125.82,19.74,19.69,36.75,45.23,49.91,75.05"/><path class="cls-1" d="m45.32,304.23c-2.37.61-4.02,1.1-6.39,1.81l-9.1,2.72c-.79.24-1.34.4-2.12.67l.28.94c.57,1.92,1.25,3.74,1.73,5.12l-.14.21c-1.37.31-2.32.56-3.71.91l-.24-.13s-.25-.95-.44-1.59l-1.57-5.26c-.35-1.16-.88-2.85-1.26-4l.13-.24c2.14-.6,3.66-1.06,5.79-1.7,5.17-1.55,13.21-4.04,15.4-4.73l.2.11c.55,1.82.97,3.12,1.57,4.93l-.13.24Z"/><path class="cls-1" d="m34.65,328.84c-1.19.34-2.04.62-3.21,1.02l-.27-.1c-1.47-1.12-2.45-3.77-2.47-3.83-2.62-7.06,3.67-9.56,5.46-10.23,6.02-2.23,9.4-.24,10.72,3.31.53,1.27.59,2.68.2,4-.66,2.04-2.36,3.42-5.49,4.58-.57.21-.98.37-1.56.54l-.26-.14-2.76-7.45c-2.29.85-3.5,2.72-2.58,5.2.41,1.18,1.21,2.19,2.28,2.85l-.04.25Zm4.37-6.03c1.76-.65,3.25-1.48,2.74-2.85-.43-1.16-2.28-1.12-3.98-.49l1.24,3.34Z"/><path class="cls-1" d="m52.48,338.23c-2.88.49-4.94.72-7.84,1.15l-4.34.65c-1.76.27-2.98.5-4.77.78l-.26-.12-.49-1.1c-.49-1.1-.86-1.84-1.41-2.92l.08-.28,6.23-5.13c2.59-2.14,4.42-3.58,6.91-5.81l.24.07c.78,1.6,1.32,2.72,2.15,4.26l-.08.28c-2.08,1.35-3.43,2.44-5.43,3.9l-4.11,3.03c7.43-1.59,9.08-1.88,11.36-2.55l.26.13.43.96c.43.96.73,1.62,1.2,2.53l-.12.19Z"/><path class="cls-1" d="m47.55,355.65c-1.14.5-1.94.88-3.05,1.44l-.29-.06c-1.6-.91-2.92-3.41-2.95-3.47-3.53-6.65,2.38-9.96,4.06-10.85,5.67-3.01,9.29-1.47,11.06,1.87.69,1.19.94,2.58.72,3.94-.39,2.11-1.89,3.7-4.83,5.26-.53.28-.93.49-1.48.75l-.27-.11-3.72-7.02c-2.16,1.14-3.11,3.16-1.87,5.49.56,1.12,1.49,2.01,2.63,2.52v.26Zm3.54-6.55c1.66-.88,3.02-1.89,2.34-3.18-.58-1.09-2.41-.81-4.01.04l1.67,3.14Z"/><path class="cls-1" d="m45.64,360.46c2.3-1.29,3.91-2.2,6.14-3.55,2.59-1.52,5.09-3.18,7.5-4.98l.26.06c.99,1.29,2.08,2.51,3.26,3.63l-.07.26c-.99.57-1.67.98-2.65,1.58l-.57.35c1.72-.42,4.07-.84,5.26,1.11.17.29.3.59.41.91l-.09.28c-1.8.77-3.03,1.32-4.78,2.17l-.23-.13c.18-.54.14-1.13-.13-1.63-1.18-1.93-3.3-.78-5.37.48-2.5,1.52-3.99,2.5-6.12,3.88l-.26-.06-.68-1.12c-.68-1.11-1.19-1.88-1.93-2.99l.06-.26Z"/><path class="cls-1" d="m58.46,380.27l-.61-.89c-.71-1.02-1.24-1.73-2-2.72l.03-.29,1.02-.71c-1.42-.2-2.69-.99-3.48-2.19-1.14-1.65-1.2-4.35,1.89-6.49,2.72-1.88,5.49-1.56,9.45,2.31l.48.48.23-.16c.89-.62,1.5-1.35.35-3.02-.84-1.17-2-2.08-3.34-2.6l-.02-.25c1.02-.59,1.74-1.06,2.73-1.7h.32c1.54,1.04,2.87,2.34,3.94,3.86,3.11,4.49.13,6.71-1.57,7.89-.55.38-2.86,1.9-4.53,3.06-2.17,1.5-3.83,2.84-4.58,3.48l-.28-.07Zm4.41-8.81c-.93-1.06-2.48-2.46-4.51-1.05-.81.56-1.58,1.63-.85,2.68.4.53,1.02.87,1.68.92l3.69-2.55Z"/><path class="cls-1" d="m67.32,384l.85,2.54c1.42,4.23,1.38,5.97-.55,7.51-2.33,1.86-5.75,1.86-9.01-2.24-2.46-3.08-2.5-6.09-.59-7.62,1.91-1.53,3.95-.55,4.87-.11-.13-.66-.2-1.32-.2-1.99l.21-.25c1.55-.3,2.63-.47,4.19-.66-.46-1.97.31-4.02,1.94-5.21,2.23-1.78,5.59-2.26,8.46,1.34l4.42,5.54-.05.24c-.84.58-1.45.99-2.26,1.64l-.24-.05c-.43-.64-.71-1.1-1.16-1.71-.06,1.17-.64,2.26-1.58,2.96-1.51,1.21-4.72,2.34-7.61-1.29-.24-.3-.45-.62-.64-.95-.34.03-.58.09-.9.15l-.13.14Zm-6.5,3.11c-1.12.89-.75,2.22-.1,3.04,1.01,1.27,2.22,1.2,2.89.66,1.14-.91.54-2.02.1-4.06-1.7-.35-2.34-.08-2.89.35m9.84-4.47c.75.94,1.94.6,3.39-.55,1.71-1.36,1.91-2.5,1.33-3.22-.75-.95-2.23-.3-3.47.69-1.24.99-1.96,2.18-1.25,3.07"/><path class="cls-1" d="m70.36,394.98c2.18-1.8,3.7-3.06,5.82-4.93,2.15-1.83,4.19-3.78,6.12-5.84h.25c1.43,1.23,2.46,2.06,3.99,3.16l-.02.27c-1.97,1.66-3.35,2.83-5.3,4.56-2.74,2.42-4.64,4.15-7.21,6.76h-.25c-.17-.18-.73-.87-1.11-1.3-.82-.93-1.44-1.53-2.3-2.41l.02-.27Zm14.52-12.63l.83-.74c.76-.67,1.27-1.16,1.98-1.88l.27.02c1.24,1.16,2.13,1.93,3.42,3v.27c-.73.59-1.23,1.03-1.92,1.64l-.95.84h-.25c-1.21-1.13-2.11-1.86-3.4-2.88v-.27Z"/><path class="cls-1" d="m79.7,405.2l-1.14-1.13c-.87-.86-1.48-1.42-2.4-2.24v-.27c1.8-1.65,3.08-2.79,4.83-4.49,2.57-2.48,4.35-4.29,6.73-6.95l.25-.02c1.53,1.11,2.61,1.86,4.18,2.88v.27c-.56.49-.95.83-1.48,1.34,1.67-.08,3.31.49,4.56,1.58.61.59,1,1.37,1.09,2.21.13,1.53-1.05,3.12-2.81,4.82-2.54,2.46-5.55,5.45-7.7,7.8l-.3-.02-1.12-1.11c-.84-.84-1.46-1.4-2.38-2.22l.02-.25c.86-.78,2.59-2.46,4.12-3.93l2.06-1.99c2.38-2.3,3.26-3.37,2.32-4.3-.56-.45-1.28-.64-2-.53-.46.4-.76.69-1.2,1.12-2.22,2.14-6.66,6.66-7.38,7.44h-.27Z"/><path class="cls-1" d="m94.72,413.08l1.27,2.35c2.14,3.92,2.41,5.63.77,7.49-1.97,2.24-5.33,2.84-9.27-.62-2.96-2.6-3.53-5.56-1.91-7.4,1.61-1.84,3.79-1.23,4.78-.96-.24-.62-.43-1.27-.55-1.92l.16-.28c1.47-.57,2.51-.93,4.01-1.38-.8-1.86-.4-4.01,1-5.47,1.89-2.15,5.11-3.21,8.57-.17l5.32,4.68v.25c-.73.72-1.26,1.23-1.95,2.01h-.25c-.53-.56-.89-.96-1.45-1.49.15,1.17-.23,2.34-1.03,3.2-1.28,1.45-4.23,3.13-7.72.06-.29-.25-.55-.53-.8-.83-.33.09-.55.19-.86.3l-.1.16Zm-5.85,4.2c-.95,1.07-.35,2.32.44,3.01,1.22,1.07,2.39.79,2.96.15.97-1.1.18-2.08-.62-4.01-1.74-.05-2.32.33-2.78.85m8.9-6.13c.91.8,2.02.25,3.24-1.13,1.45-1.64,1.44-2.79.75-3.4-.91-.8-2.24.1-3.29,1.29-1.05,1.19-1.55,2.48-.69,3.24"/><path class="cls-1" d="m109.32,430.8c1.52-2.04,9.37-12.94,10.84-15.01-1.42-.97-2.38-1.69-3.86-2.58l-.05-.27c.85-1.03,1.41-1.77,2.21-2.84l.25-.02,5.67,4.02c2.25,1.6,3.85,2.69,6.12,4.22l.02.25c-.83,1.01-1.43,1.75-2.23,2.82l-.26.05c-1.14-.92-1.97-1.51-3.16-2.36l-.44-.31-2.31,3.27c-3.1,4.38-5.27,7.44-8.23,11.88l-.27.05-1.22-.87c-1.11-.79-1.91-1.31-3.03-2.04l-.05-.26Z"/><path class="cls-1" d="m129.76,439.4c-.74,1-1.24,1.74-1.92,2.77l-.28.09c-1.84,0-4.24-1.5-4.29-1.53-6.38-4-2.92-9.82-1.91-11.44,3.41-5.44,7.31-5.92,10.51-3.91,1.19.69,2.1,1.76,2.59,3.05.72,2.02.21,4.15-1.56,6.97-.32.51-.56.89-.9,1.38l-.29.04-6.73-4.22c-1.3,2.07-1.11,4.29,1.12,5.69,1.04.69,2.3,1,3.54.87l.12.23Zm-.21-7.44c1-1.59,1.68-3.15.44-3.93-1.05-.66-2.49.5-3.45,2.04l3.01,1.89Z"/><path class="cls-1" d="m139.17,449.04c-1.11-.15-2.19-.49-3.18-1.01-4.58-2.49-4.14-6.95-2.21-10.5,2.05-3.77,5.68-7.58,10.93-4.72.92.49,1.74,1.15,2.41,1.96v.28c-.72,1.1-1.2,1.85-1.85,2.98l-.24-.02c-.23-.71-.72-1.31-1.36-1.68-1.9-1.03-3.78.22-5.28,2.99-1.64,3.01-1.46,5.07.55,6.16.65.33,1.39.48,2.12.43l.09.16c-.65,1.06-1.09,1.8-1.7,2.87l-.27.1Z"/><path class="cls-1" d="m141.87,450.66c1.88-3.75,3.12-6.43,4.88-10.24,1.83-3.95,3.13-6.75,4.64-10.84l.2-.12c1.79.52,3.05.82,4.87,1.28l.08.21c-1.41,2.89-2.34,4.9-3.69,7.81l-.19.41c1.11-.36,2.96-.94,4.8-.09,3.46,1.6,1.72,5.35.95,7.02l-1.74,3.75c-1.07,2.31-1.73,3.96-2.71,6.31l-.22.11c-.23-.11-1.11-.55-1.66-.8-.98-.45-1.73-.73-2.73-1.13l-.06-.24c.9-1.86,1.51-3.19,2.37-5.03l1.04-2.25c1.58-3.4,2.1-4.6.88-5.16-.62-.25-1.31-.21-1.9.1l-.18.09-.17.37c-.57,1.24-4.36,9.64-4.68,10.55l-.23.1c-.29-.13-1.02-.51-1.54-.75-1.07-.49-1.84-.78-2.91-1.21l-.09-.25Z"/><path class="cls-1" d="m161.9,459.5l-1.49-.56c-1.13-.42-1.91-.69-3.07-1.05l-.11-.24c.91-2.24,1.56-3.79,2.41-6.05,1.24-3.3,2.07-5.67,3.07-9.06l.22-.12c1.83.38,3.09.62,4.92.9l.11.25c-.29.67-.5,1.14-.75,1.82,1.45-.76,3.15-.91,4.71-.43.79.29,1.46.84,1.89,1.56.75,1.34.37,3.26-.48,5.52-1.23,3.27-2.65,7.22-3.58,10.23l-.27.1-1.46-.55c-1.1-.41-1.89-.68-3.04-1.04l-.08-.23c.43-1.06,1.27-3.29,2.01-5.25l1-2.65c1.15-3.06,1.49-4.4.27-4.86-.68-.18-1.41-.06-1.99.33-.24.56-.39.94-.6,1.51-1.07,2.86-3.13,8.77-3.44,9.77l-.24.11Z"/><path class="cls-1" d="m184.21,448.91c4.7,1.38,6.03,4.95,4.4,10.5-2.08,7.07-6.39,7.2-9.23,6.36-4.33-1.27-6.17-4.5-4.35-10.66,1.23-4.18,4.06-7.72,9.18-6.21m-3.98,13.74c1.46.43,2.42-1.24,3.52-4.99.76-2.59,1.13-5.2-.36-5.64-1.62-.48-2.72,2.15-3.45,4.62-.74,2.5-1.36,5.53.28,6.02"/><path class="cls-1" d="m189.18,467.98c.82-3.07,1.36-5.26,2.09-8.36,1.12-4.77,2.43-10.37,3.04-14.21l.2-.15c1.83.14,3.09.17,4.94.24l.14.23c-.78,3.18-1.42,5.9-2.02,8.47-.52,2.23-2.86,12.88-3.23,14.88l-.23.14c-.28-.06-1.04-.28-1.54-.39-1.21-.29-2.06-.42-3.28-.64l-.11-.22Z"/><path class="cls-1" d="m207.06,454.3c4.82.85,6.54,4.25,5.53,9.95-1.29,7.26-5.55,7.86-8.46,7.34-4.44-.79-6.62-3.79-5.5-10.11.76-4.28,3.18-8.11,8.43-7.18m-2.43,14.09c1.5.26,2.27-1.5,2.95-5.35.47-2.66.55-5.29-.98-5.56-1.66-.3-2.46,2.43-2.91,4.97-.45,2.56-.74,5.64.95,5.94"/><path class="cls-1" d="m219.47,468.66l2.4,1.18c4.01,1.95,5.22,3.2,4.96,5.66-.31,2.97-2.71,5.4-7.92,4.85-3.92-.41-6.09-2.5-5.84-4.93.25-2.43,2.38-3.2,3.34-3.54-.56-.37-1.08-.79-1.56-1.25l-.03-.32c.87-1.31,1.51-2.21,2.47-3.45-1.73-1.05-2.65-3.04-2.34-5.04.3-2.84,2.31-5.57,6.89-5.09l7.04.74.14.21c-.17,1-.31,1.72-.42,2.77l-.2.14c-.75-.14-1.28-.26-2.04-.37.79.87,1.16,2.04,1,3.21-.2,1.93-1.64,5-6.26,4.52-.38-.04-.76-.11-1.13-.21-.22.26-.34.48-.53.74v.19Zm-2.34,6.81c-.15,1.42,1.06,2.09,2.1,2.2,1.61.17,2.41-.74,2.5-1.59.15-1.45-1.06-1.8-2.82-2.92-1.44.97-1.7,1.61-1.78,2.3m3.72-10.15c1.2.13,1.79-.96,1.99-2.79.23-2.18-.44-3.11-1.36-3.21-1.2-.13-1.77,1.38-1.94,2.96-.17,1.58.17,2.93,1.31,3.04"/><path class="cls-1" d="m229.49,457.62c1.87.03,3.21.02,5.06-.04l.25.2c.37,2.11.67,3.58,1.1,5.67l1.04,4.84,1.49-5.07c.54-1.89.97-3.21,1.42-5.13l.2-.18.98.04c1.08.04,1.84.06,2.96.04l.12.2c-1.2,3.42-2.05,5.81-3.22,9.23l-1.77,5.15c-1.06,3.14-1.78,5.38-2.63,8.59l-.23.15-1.37-.05c-1.08-.04-1.84-.03-2.93,0l-.15-.23c.78-1.63,1.46-3.31,2.05-5.01l.32-.88c-1-4.01-1.76-6.84-2.89-10.79-.68-2.44-1.09-4.14-1.93-6.52l.13-.18Z"/><path class="cls-1" d="m258.66,461.58c.23,4.32.47,8.19.9,12.52l-.18.2-.98.06c-1.43.08-2.44.16-3.87.3l-.2-.18c-.13-4.67-.3-7.91-.55-12.57l-.04-.7c-.22.01-.95.11-1.58.15l-.17-.15c0-1.05-.03-2.35-.04-3.15l.18-.2c.54-.03,1.27,0,1.4-.01l-.07-1.24c-.2-3.78.39-6.26,4.99-6.51.75-.05,1.5-.01,2.23.1l.14.18c-.06,1.25-.05,2.1-.01,3.31l-.21.2c-.24-.13-.5-.19-.77-.18-1.24.07-1.57,1.04-1.49,2.37l.08,1.52c.32-.02.92-.05,2.22-.21l.2.21c-.03,1.15-.04,2.23-.02,3.12l-.18.2c-.76,0-1.81.07-2,.08l.03.57Z"/><path class="cls-1" d="m268.53,456.25c4.86-.55,7.47,2.23,8.12,7.97.82,7.32-3.1,9.1-6.03,9.43-4.48.5-7.42-1.75-8.14-8.13-.48-4.32.75-8.68,6.06-9.28m1.66,14.19c1.51-.17,1.75-2.08,1.31-5.96-.3-2.68-.97-5.23-2.52-5.05-1.67.19-1.67,3.03-1.39,5.59.29,2.59.89,5.62,2.59,5.43"/><path class="cls-1" d="m280.56,471.91c-.36-2.61-.62-4.44-1.07-7-.47-2.96-1.11-5.9-1.9-8.79l.15-.22c1.57-.45,3.09-1.02,4.57-1.71l.22.16c.17,1.13.31,1.91.5,3.04l.11.66c.24-1.75.7-4.09,2.95-4.49.33-.05.66-.07.99-.05l.23.19c.06,1.96.13,3.3.28,5.24l-.2.16c-.43-.37-1-.54-1.57-.46-2.22.39-1.93,2.79-1.51,5.17.5,2.88.88,4.62,1.38,7.11l-.15.22-1.28.23c-1.28.23-2.19.42-3.49.71l-.22-.15Z"/><path class="cls-1" d="m312.11,464.77l-1.04.29c-1.19.33-2.04.6-3.22,1l-.26-.12-.33-1.19c-.65,1.28-1.82,2.21-3.21,2.57-1.93.54-4.5-.3-5.51-3.91-.89-3.18.33-5.7,5.28-8.16l.61-.3-.08-.28c-.29-1.04-.78-1.86-2.74-1.31-1.38.41-2.61,1.21-3.55,2.31l-.25-.06c-.22-1.16-.42-1.99-.71-3.13l.11-.3c1.47-1.12,3.14-1.95,4.92-2.46,5.26-1.47,6.38,2.08,6.94,4.07.18.64.86,3.32,1.4,5.28.71,2.54,1.43,4.55,1.79,5.47l-.16.24Zm-6.88-7.06c-1.3.53-3.13,1.53-2.47,3.92.27.95,1.03,2.02,2.25,1.68.64-.21,1.15-.68,1.42-1.29l-1.2-4.32Z"/><path class="cls-1" d="m323.83,460.7c-1.26-3.36-2.18-5.73-3.54-9.09-1.59-3.95-3.05-7.47-4.83-11.37l.08-.21c2.44-1.02,4.11-1.8,6.55-2.78,3.15-1.27,6.92-2.55,8.83,2.19,1.03,2.18.35,4.78-1.62,6.17,4.33-1.16,5.91,2.17,6.35,3.26.53,1.23.69,2.58.44,3.9-.63,2.86-2.94,4.34-6.95,5.96l-1.59.64c-1.3.52-2.21.89-3.52,1.46l-.22-.12Zm.87-14.47c1.03-.42,2.98-1.44,1.91-4.09-1-2.48-2.66-2.01-3.66-1.6-.53.21-1.28.55-1.37.59.22.56.67,1.75,1.02,2.6.19.47.85,2.02,1.19,2.87l.91-.37Zm3.87,9.06c1.03-.42,3.14-1.47,2.01-4.27-.95-2.36-2.6-2.28-4.48-1.51-.34.13-.67.27-.99.44l.58,1.44c.66,1.62,1.11,2.74,1.79,4.34l1.09-.44Z"/><path class="cls-1" d="m350.09,444.55c.47,1.15.83,1.96,1.35,3.09l-.07.28c-.96,1.57-3.49,2.83-3.55,2.86-6.75,3.34-9.89-2.66-10.74-4.36-2.85-5.75-1.21-9.32,2.18-11,1.21-.65,2.6-.87,3.95-.61,2.1.45,3.64,1.99,5.12,4.98.27.54.47.94.7,1.49l-.11.27-7.12,3.52c1.08,2.19,3.07,3.2,5.43,2.03,1.14-.53,2.05-1.43,2.59-2.56l.26.02Zm-6.45-3.72c-.83-1.68-1.81-3.08-3.12-2.43-1.11.55-.87,2.38-.07,4l3.19-1.58Z"/><path class="cls-1" d="m352.87,432.52c2.55,4.51,3.13,5.6,3.68,6.57.5.88,1.36,2.15,2.55,1.48.31-.19.56-.46.73-.78l.23.02c.52,1.05.86,1.77,1.41,2.81l-.06.29c-.61.64-1.31,1.18-2.09,1.59-3.76,2.13-5.32-.17-6.18-1.69-1.91-3.37-2.85-5.1-3.3-5.91l-1.17-2.07c-.32.22-.84.51-1.32.82l-.22-.06c-.52-1.05-.9-1.79-1.44-2.8l.07-.26,1.24-.7-.42-.75c-.55-.97-1.2-2.06-1.51-2.61l.03-.27c1.26-1.19,2.14-2.09,3.33-3.34l.26.07c.9,1.72,1.58,2.93,2.51,4.64.75-.42,1.26-.75,2-1.24l.25.12c.35.75.87,1.73,1.39,2.79l-.09.23-1.88,1.06Z"/><path class="cls-1" d="m360.8,427.7c2.74,4.39,3.37,5.46,3.96,6.4.54.86,1.45,2.09,2.61,1.36.3-.2.54-.48.69-.81h.23c.57,1.04.94,1.75,1.53,2.76l-.04.29c-.58.66-1.26,1.23-2.02,1.67-3.66,2.29-5.32.06-6.24-1.42-2.05-3.29-3.07-4.97-3.56-5.76l-1.26-2.02c-.31.23-.82.55-1.29.88l-.22-.05c-.57-1.03-.98-1.75-1.56-2.74l.06-.26,1.21-.76-.45-.73c-.59-.94-1.29-2.01-1.63-2.54l.02-.27c1.21-1.24,2.05-2.18,3.18-3.49l.26.06c.97,1.68,1.71,2.86,2.71,4.52.73-.45,1.22-.8,1.94-1.33l.25.1c.38.73.95,1.69,1.51,2.72l-.08.24-1.83,1.14Z"/><path class="cls-1" d="m379.31,426.11c.63,1.07,1.12,1.81,1.81,2.85l-.03.29c-.71,1.7-3.02,3.33-3.07,3.36-6.16,4.33-10.18-1.11-11.28-2.67-3.69-5.25-2.62-9.03.47-11.21,1.09-.83,2.44-1.26,3.81-1.21,2.15.12,3.91,1.41,5.83,4.14.35.49.6.86.92,1.37l-.07.28-6.5,4.57c1.41,2,3.52,2.69,5.68,1.17,1.04-.7,1.81-1.73,2.18-2.93l.26-.02Zm-6.95-2.69c-1.08-1.53-2.26-2.77-3.45-1.92-1.01.71-.5,2.49.54,3.97l2.91-2.05Z"/><path class="cls-1" d="m384.38,427.37c-1.57-2.12-2.66-3.6-4.28-5.64-1.83-2.38-3.79-4.66-5.87-6.82l.03-.27c1.16-1.14,2.23-2.37,3.2-3.68l.27.03c.69.91,1.18,1.54,1.89,2.43l.41.52c-.62-1.65-1.34-3.93.45-5.35.26-.2.55-.37.85-.51l.29.06c.98,1.69,1.69,2.84,2.75,4.47l-.1.24c-.56-.12-1.14,0-1.6.34-1.77,1.4-.36,3.37,1.14,5.26,1.82,2.29,2.98,3.64,4.61,5.59l-.03.27-1.02.81c-1.02.81-1.72,1.41-2.72,2.29l-.27-.03Z"/><path class="cls-1" d="m402.3,412.2c-1.71-1.85-10.9-11.48-12.65-13.28-1.2,1.2-2.08,2.02-3.21,3.29h-.27c-.85-1.02-1.46-1.7-2.36-2.67l.02-.24,4.95-4.8c1.97-1.91,3.32-3.27,5.22-5.19l.24.03c.83.99,1.44,1.71,2.34,2.69v.27c-1.11.94-1.83,1.64-2.87,2.65l-.38.37,2.76,2.85c3.7,3.82,6.29,6.49,10.08,10.17v.27s-1.07,1.03-1.07,1.03c-.97.94-1.63,1.62-2.53,2.59h-.27Z"/><path class="cls-1" d="m401.59,388.47c3.3-3.61,7.1-3.24,11.36.67,5.44,4.98,3.65,8.9,1.66,11.08-3.05,3.33-6.75,3.56-11.48-.78-3.21-2.94-5.14-7.04-1.54-10.98m10.59,9.61c1.03-1.13-.05-2.72-2.93-5.36-1.99-1.83-4.17-3.3-5.22-2.16-1.14,1.24.73,3.39,2.63,5.13,1.92,1.76,4.37,3.65,5.53,2.39"/><path class="cls-1" d="m415.32,381.21c3.36,2.56,5.71,4.35,9.17,6.74l.04.27c-1.08,1.42-1.8,2.42-2.83,3.88l-.27.04c-.88-.67-2.79-2.16-4.94-3.8-2.58-2.04-5.27-3.93-8.07-5.66l-.04-.26c.85-1.46,1.62-2.97,2.31-4.51l.29-.06c.59.53,1.05.88,1.66,1.39-.36-2.67.13-3.89.71-4.65.82-1.14,2.27-1.64,3.62-1.24-.32-1.74.08-3.54,1.12-4.98,1.96-2.58,4.66-1.56,7.07.27l1.85,1.4c2.6,1.98,4.47,3.36,7.17,5.22l.04.27-.66.86c-.83,1.09-1.4,1.89-2.17,3.01l-.27.04c-2.8-2.2-4.67-3.67-7.68-5.96-1.44-1.1-2.76-1.98-3.57-.92-.36.56-.48,1.25-.33,1.9.69.45,1.25.87,1.83,1.32l2.5,1.9c1.97,1.5,3.45,2.5,5.46,3.95l.04.27-.58.76c-.85,1.11-1.4,1.89-2.19,3.04l-.27.04c-1.6-1.3-2.77-2.19-4.41-3.44l-2.63-2c-2.2-1.67-3.5-2.38-4.27-1.37-.3.58-.39,1.25-.24,1.89l.56.42Z"/><path class="cls-1" d="m425.27,357.36c2.59-4.15,6.39-4.47,11.3-1.41,6.25,3.91,5.21,8.09,3.64,10.6-2.39,3.83-5.99,4.73-11.43,1.32-3.69-2.31-6.34-5.99-3.51-10.52m12.16,7.53c.81-1.29-.55-2.66-3.86-4.74-2.29-1.43-4.7-2.49-5.53-1.17-.89,1.43,1.34,3.2,3.52,4.56,2.21,1.38,4.96,2.8,5.87,1.35"/><path class="cls-1" d="m445.02,357.7c-2.27-1.34-3.86-2.28-6.15-3.52-2.62-1.47-5.31-2.8-8.07-3.97l-.08-.26c.62-1.5,1.12-3.06,1.5-4.64l.26-.08c.99.57,1.69.95,2.7,1.49l.59.32c-1.22-1.28-2.77-3.09-1.68-5.1.17-.29.36-.56.58-.81l.29-.06c1.57,1.18,2.66,1.95,4.28,3.04v.26c-.55.11-1.04.45-1.33.94-1.08,1.98.99,3.24,3.11,4.4,2.57,1.39,4.16,2.18,6.43,3.34l.08.26-.62,1.15c-.62,1.15-1.03,1.97-1.61,3.17l-.26.08Z"/><path class="cls-1" d="m450.64,347.12c-2.34-1.22-3.98-2.07-6.33-3.19-2.69-1.33-5.45-2.52-8.27-3.54l-.09-.25c.54-1.54.96-3.11,1.26-4.71l.25-.09c1.02.52,1.74.86,2.77,1.35l.6.29c-1.29-1.21-2.93-2.94-1.95-5,.15-.3.33-.58.54-.84l.28-.08c1.63,1.09,2.77,1.81,4.43,2.81l.02.25c-.55.14-1.02.51-1.29,1.01-.97,2.04,1.16,3.19,3.34,4.22,2.64,1.26,4.28,1.96,6.6,3l.09.26-.56,1.18c-.56,1.18-.93,2.02-1.44,3.25l-.25.09Z"/><path class="cls-1" d="m447.12,312.19c2.01.27,3.42.43,5.44.65l5.75.61c-6.93-3.65-8.13-4.28-9.87-5.1l-.12-.27c.21-.6.41-1.24.6-1.88.32-1.06.51-1.8.77-2.89l.25-.16c2.01.27,3.39.42,11.15,1.31-6.89-3.57-8.11-4.24-9.96-5.03l-.13-.24.31-1.03c.26-.88.45-1.49.65-2.39l.23-.1c2.67,1.6,4.53,2.69,7.21,4.26l3.86,2.26c1.33.77,2.44,1.37,3.6,2.04l.11.3c-.05.18-.32.96-.47,1.45-.31,1.03-.47,1.78-.73,2.86l-.25.16c-1.98-.26-3.39-.42-11.2-1.25,6.59,3.54,7.99,4.2,9.89,5.27l.12.27-.39,1.31c-.34,1.13-.54,1.89-.82,3.04l-.25.16c-5.21-.31-15.43-.97-16.86-.97l-.14-.21c.41-1.57.65-2.72.99-4.28l.25-.16Z"/></g></g></g></g></svg>